<svg id="Group_6562" data-name="Group 6562" xmlns="http://www.w3.org/2000/svg" xmlns:xlink="http://www.w3.org/1999/xlink" width="510" height="258.692" viewBox="0 0 510 258.692">
  <defs>
    <clipPath id="clip-path">
      <rect id="Rectangle_2191" data-name="Rectangle 2191" width="510" height="258.692" fill="none"/>
    </clipPath>
    <clipPath id="clip-path-3">
      <rect id="Rectangle_2143" data-name="Rectangle 2143" width="510" height="15.031" fill="none"/>
    </clipPath>
    <clipPath id="clip-path-4">
      <rect id="Rectangle_2144" data-name="Rectangle 2144" width="6.721" height="10.418" fill="none"/>
    </clipPath>
    <clipPath id="clip-path-5">
      <rect id="Rectangle_2145" data-name="Rectangle 2145" width="7.015" height="5.681" fill="none"/>
    </clipPath>
    <clipPath id="clip-path-6">
      <path id="Path_3505" data-name="Path 3505" d="M157.613,429.655a14.673,14.673,0,0,0-1.587,1.3,14.481,14.481,0,0,0-1.114,1.174c-7.766,9.136-3.341,26.332-.728,34.159.84,2.517,1.493,4.066,1.493,4.066,4.208,1.587,2.062,6.144,1.3,7.514-.14.25-.233.394-.233.394.1.045.2.089.3.131,12.467,5.335,20.6.851,20.6.851,1.348-10.146-.81-25.15-1.453-29.232a10.1,10.1,0,0,1-.1-2.168c.253-4.307.306-7.54.274-9.9a36.143,36.143,0,0,0-.342-5.431c-2.747-2.837-7.4-3.541-11.339-3.541a37.731,37.731,0,0,0-7.065.682" transform="translate(-150.541 -428.973)" fill="none"/>
    </clipPath>
    <linearGradient id="linear-gradient" x1="-1.546" y1="1.986" x2="-1.535" y2="1.986" gradientUnits="objectBoundingBox">
      <stop offset="0" stop-color="#0057e0"/>
      <stop offset="0.999" stop-color="#0078ff"/>
      <stop offset="1" stop-color="#0078ff"/>
    </linearGradient>
    <clipPath id="clip-path-8">
      <rect id="Rectangle_2148" data-name="Rectangle 2148" width="4.581" height="2.189" fill="none"/>
    </clipPath>
    <clipPath id="clip-path-9">
      <rect id="Rectangle_2149" data-name="Rectangle 2149" width="7.684" height="1.556" fill="none"/>
    </clipPath>
    <clipPath id="clip-path-10">
      <rect id="Rectangle_2150" data-name="Rectangle 2150" width="0.303" height="0.525" fill="none"/>
    </clipPath>
    <clipPath id="clip-path-11">
      <rect id="Rectangle_2151" data-name="Rectangle 2151" width="17.851" height="4.948" fill="none"/>
    </clipPath>
    <clipPath id="clip-path-12">
      <rect id="Rectangle_2152" data-name="Rectangle 2152" width="8.185" height="12.18" fill="none"/>
    </clipPath>
    <clipPath id="clip-path-13">
      <rect id="Rectangle_2153" data-name="Rectangle 2153" width="27.28" height="19.807" fill="none"/>
    </clipPath>
    <clipPath id="clip-path-14">
      <rect id="Rectangle_2154" data-name="Rectangle 2154" width="6.787" height="9.446" fill="none"/>
    </clipPath>
    <clipPath id="clip-path-15">
      <rect id="Rectangle_2155" data-name="Rectangle 2155" width="1.833" height="1.851" fill="none"/>
    </clipPath>
    <clipPath id="clip-path-16">
      <rect id="Rectangle_2156" data-name="Rectangle 2156" width="1.76" height="2.422" fill="none"/>
    </clipPath>
    <clipPath id="clip-path-17">
      <rect id="Rectangle_2157" data-name="Rectangle 2157" width="1.682" height="2.078" fill="none"/>
    </clipPath>
    <clipPath id="clip-path-18">
      <rect id="Rectangle_2158" data-name="Rectangle 2158" width="1.842" height="1.024" fill="none"/>
    </clipPath>
    <clipPath id="clip-path-19">
      <rect id="Rectangle_2159" data-name="Rectangle 2159" width="6.09" height="5.815" fill="none"/>
    </clipPath>
    <clipPath id="clip-path-20">
      <rect id="Rectangle_2160" data-name="Rectangle 2160" width="7.676" height="5.816" fill="none"/>
    </clipPath>
    <clipPath id="clip-path-21">
      <rect id="Rectangle_2161" data-name="Rectangle 2161" width="24.931" height="75.737" fill="none"/>
    </clipPath>
    <clipPath id="clip-path-22">
      <rect id="Rectangle_2162" data-name="Rectangle 2162" width="5.655" height="3.311" fill="none"/>
    </clipPath>
    <clipPath id="clip-path-23">
      <path id="Path_3542" data-name="Path 3542" d="M848.761,307.356s-4.313,2.549-5.17,3.222c0,0,2.437,4.905-9.483,1.827,0,0-10.57,4.184-11.558,7.069,0,0-4.149,5.1-8.1,3.463,0,0,.691,8.32-2.535,8.9,0,0,3.387,4.275,14.765-5.9l.019-.017s9.8,7.01,2.31,33.17c-.01.037-.021.076-.032.114l22.355,1.159s-.6-32.23-2.309-40.5c0,0-.724-2.4.725-3.366l10.7-11.782s-2.009-5.242-3.655-5.627Z" transform="translate(-811.916 -299.085)" fill="none"/>
    </clipPath>
    <linearGradient id="linear-gradient-2" x1="-5.848" y1="2.516" x2="-5.84" y2="2.516" gradientUnits="objectBoundingBox">
      <stop offset="0" stop-color="#0078ff"/>
      <stop offset="0.001" stop-color="#0078ff"/>
      <stop offset="1" stop-color="#0af"/>
    </linearGradient>
    <clipPath id="clip-path-25">
      <rect id="Rectangle_2165" data-name="Rectangle 2165" width="1.288" height="3.281" fill="none"/>
    </clipPath>
    <clipPath id="clip-path-26">
      <rect id="Rectangle_2166" data-name="Rectangle 2166" width="1.415" height="5.382" fill="none"/>
    </clipPath>
    <clipPath id="clip-path-27">
      <rect id="Rectangle_2167" data-name="Rectangle 2167" width="1.012" height="2.207" fill="none"/>
    </clipPath>
    <clipPath id="clip-path-28">
      <rect id="Rectangle_2168" data-name="Rectangle 2168" width="5.406" height="33.423" fill="none"/>
    </clipPath>
    <clipPath id="clip-path-29">
      <rect id="Rectangle_2169" data-name="Rectangle 2169" width="2.056" height="2.57" fill="none"/>
    </clipPath>
    <clipPath id="clip-path-30">
      <path id="Path_3559" data-name="Path 3559" d="M1217.948,417.063c-6.723,7.974-7.955,34.753-7.955,34.753l-1.569,34.753c17.256,19.638,44.708,0,44.708,0a225.454,225.454,0,0,1-11.877-41.061,83.416,83.416,0,0,0-9.076-28.445Z" transform="translate(-1208.424 -417.063)" fill="none"/>
    </clipPath>
    <linearGradient id="linear-gradient-3" x1="-9.448" y1="1.266" x2="-9.44" y2="1.266" xlink:href="#linear-gradient"/>
    <clipPath id="clip-path-32">
      <rect id="Rectangle_2172" data-name="Rectangle 2172" width="4.583" height="18.298" fill="none"/>
    </clipPath>
    <clipPath id="clip-path-33">
      <rect id="Rectangle_2173" data-name="Rectangle 2173" width="10.623" height="11.803" fill="none"/>
    </clipPath>
    <clipPath id="clip-path-34">
      <rect id="Rectangle_2174" data-name="Rectangle 2174" width="3.849" height="26.371" fill="none"/>
    </clipPath>
    <clipPath id="clip-path-35">
      <rect id="Rectangle_2175" data-name="Rectangle 2175" width="11.572" height="9.096" fill="none"/>
    </clipPath>
    <clipPath id="clip-path-36">
      <rect id="Rectangle_2176" data-name="Rectangle 2176" width="7.383" height="58.395" fill="none"/>
    </clipPath>
    <clipPath id="clip-path-37">
      <rect id="Rectangle_2177" data-name="Rectangle 2177" width="26.694" height="11.513" fill="none"/>
    </clipPath>
    <clipPath id="clip-path-38">
      <path id="Path_3587" data-name="Path 3587" d="M463.346,342.908l-11.274,6.7,4.62,20.364s.619,2.072,1.242,3.6a6.313,6.313,0,0,1,.41,3.165,23.6,23.6,0,0,0,.016,6.22,30.775,30.775,0,0,1,.251,6.672q-.086,1.255-.266,2.5c-.3,2.091-.3,4.189.679,4.958,0,0,.793.71,2.038,1.708,2.685,2.156,7.467,5.659,10.877,6.269,0,0,7.393,1.7,12.475-2.054l1.624-1.945s-4.119-19.848-1.069-34.853l2.865-16.345a25.045,25.045,0,0,0-7.854-3.841s-.971-2.277-4.574-4.332c.058.058.924,3.751-1.34,13.442,0,0-.647-7.413-5.452-9.11l-3.1-5.939Z" transform="translate(-452.072 -340.094)" fill="none"/>
    </clipPath>
    <linearGradient id="linear-gradient-4" x1="-4.419" y1="2.097" x2="-4.409" y2="2.097" xlink:href="#linear-gradient-2"/>
    <clipPath id="clip-path-40">
      <rect id="Rectangle_2180" data-name="Rectangle 2180" width="2.3" height="50.936" fill="none"/>
    </clipPath>
    <clipPath id="clip-path-41">
      <rect id="Rectangle_2181" data-name="Rectangle 2181" width="1.936" height="10.765" fill="none"/>
    </clipPath>
    <clipPath id="clip-path-42">
      <rect id="Rectangle_2182" data-name="Rectangle 2182" width="3.728" height="7.859" fill="none"/>
    </clipPath>
    <clipPath id="clip-path-43">
      <rect id="Rectangle_2183" data-name="Rectangle 2183" width="5.31" height="18.079" fill="none"/>
    </clipPath>
    <clipPath id="clip-path-44">
      <path id="Path_3596" data-name="Path 3596" d="M444.506,366.675c-3.419,5-4.066,16.345-4.066,16.345,3.142,3.751,8.686,4.019,8.686,4.019l2.865-8.485c.826-10.57-3.027-12.218-5.513-12.218a5.838,5.838,0,0,0-1.973.339" transform="translate(-440.44 -366.336)" fill="none"/>
    </clipPath>
    <linearGradient id="linear-gradient-5" x1="-12.438" y1="6.31" x2="-12.41" y2="6.31" xlink:href="#linear-gradient-2"/>
    <clipPath id="clip-path-46">
      <rect id="Rectangle_2186" data-name="Rectangle 2186" width="4.317" height="1.476" fill="none"/>
    </clipPath>
    <clipPath id="clip-path-47">
      <rect id="Rectangle_2187" data-name="Rectangle 2187" width="5.822" height="1.432" fill="none"/>
    </clipPath>
    <clipPath id="clip-path-48">
      <rect id="Rectangle_2188" data-name="Rectangle 2188" width="4.805" height="4.656" fill="none"/>
    </clipPath>
    <clipPath id="clip-path-49">
      <rect id="Rectangle_2189" data-name="Rectangle 2189" width="3.648" height="2.869" fill="none"/>
    </clipPath>
  </defs>
  <g id="Group_6561" data-name="Group 6561" clip-path="url(#clip-path)">
    <g id="Group_6438" data-name="Group 6438">
      <g id="Group_6437" data-name="Group 6437" clip-path="url(#clip-path)">
        <g id="Group_6430" data-name="Group 6430" transform="translate(0 243.662)" opacity="0.08">
          <g id="Group_6429" data-name="Group 6429">
            <g id="Group_6428" data-name="Group 6428" clip-path="url(#clip-path-3)">
              <path id="Path_3498" data-name="Path 3498" d="M510,704.578c0,4.151-114.167,7.515-255,7.515S0,708.729,0,704.578s114.167-7.515,255-7.515,255,3.365,255,7.515" transform="translate(0 -697.063)"/>
            </g>
          </g>
        </g>
        <path id="Path_3499" data-name="Path 3499" d="M188.041,589.9c-3.555,14.565,3.4,16.352,3.4,16.352-6,4.468-11.967-10.588-11.967-10.588,2.37-1.162,3.239-14.654,3.239-14.654.632-10.991,3.476-16.441,3.476-16.441a18.7,18.7,0,0,0,.56-3.1,23.056,23.056,0,0,0-1.593-10.418,24.57,24.57,0,0,0-2.442-4.8l10.624-.045c6.319,7.685,1.106,18.318,1.106,18.318Z" transform="translate(-116.736 -355.279)" fill="#f7a79f"/>
        <g id="Group_6433" data-name="Group 6433" transform="translate(68.416 195.778)" opacity="0.09">
          <g id="Group_6432" data-name="Group 6432">
            <g id="Group_6431" data-name="Group 6431" clip-path="url(#clip-path-4)">
              <path id="Path_3500" data-name="Path 3500" d="M197.316,570.5a23.053,23.053,0,0,0-1.593-10.418l6.72.557Z" transform="translate(-195.723 -560.079)"/>
            </g>
          </g>
        </g>
        <path id="Path_3501" data-name="Path 3501" d="M120.282,546.693a10.366,10.366,0,0,1-2.528,5.681c-1.675,1.675-4.356,2.5-8.634,1.113l-16.35-5.808s-6.477-3.753-15.876,6.523c0,0-5.668-5.147,8.185-17.272,0,0,1.373,3.958,8.877,3.244,0,0,10.742-1.787,14.849,1.34l11.69,1.43a18.275,18.275,0,0,1-.212,3.749" transform="translate(-49.268 -349.244)" fill="#f7a79f"/>
        <g id="Group_6436" data-name="Group 6436" transform="translate(63.999 197.449)" opacity="0.09">
          <g id="Group_6435" data-name="Group 6435">
            <g id="Group_6434" data-name="Group 6434" clip-path="url(#clip-path-5)">
              <path id="Path_3502" data-name="Path 3502" d="M190.1,564.859a10.365,10.365,0,0,1-2.528,5.681,34.308,34.308,0,0,0-4.487-5.1Z" transform="translate(-183.087 -564.859)"/>
            </g>
          </g>
        </g>
        <path id="Path_3503" data-name="Path 3503" d="M81.385,538.133s-1.027-3.306-5.45-.179l-6.148.933a.415.415,0,0,0-.329.425.406.406,0,0,0,.379.429h5.294a.234.234,0,0,1,.161.372,21.626,21.626,0,0,1-5.521,5.6,1.556,1.556,0,0,1-.509.206c-.6.134-2.16,1.386,1.247,11.74a.669.669,0,0,0,.879.467c.636-.274,1.556-1.474,2.255-5.694,0,0-4.435-1.7.262-8.553a1.759,1.759,0,0,1,.394-.415Z" transform="translate(-44.479 -349.035)" fill="#131a3f"/>
        <path id="Path_3504" data-name="Path 3504" d="M178.072,679.672s-2.733-.836-3.056,4.119a1.631,1.631,0,0,0,.178.859c.438.838,1.335,3.321.034,8.066a.61.61,0,0,0,.521.806.655.655,0,0,0,.617-.56L177.54,687a.237.237,0,0,1,.414-.135c.974,1.12,3.846,4.588,3.632,6.307a1.76,1.76,0,0,0,.234,1.172c.661,1.018,2.719,2.377,9.123.765a.6.6,0,0,0,.317-.884c-.341-.593-1.365-1.427-4.263-2.133,0,0-3.357,1.921-6.99-4.423,0,0-2.449-5-1.935-8" transform="translate(-113.836 -442.055)" fill="#131a3f"/>
      </g>
    </g>
    <g id="Group_6440" data-name="Group 6440" transform="translate(52.622 149.949)">
      <g id="Group_6439" data-name="Group 6439" clip-path="url(#clip-path-6)">
        <rect id="Rectangle_2147" data-name="Rectangle 2147" width="31.845" height="54.757" transform="translate(-3.395 0)" fill="url(#linear-gradient)"/>
      </g>
    </g>
    <g id="Group_6487" data-name="Group 6487">
      <g id="Group_6486" data-name="Group 6486" clip-path="url(#clip-path)">
        <g id="Group_6443" data-name="Group 6443" transform="translate(57.798 189.813)" opacity="0.12">
          <g id="Group_6442" data-name="Group 6442">
            <g id="Group_6441" data-name="Group 6441" clip-path="url(#clip-path-8)">
              <path id="Path_3506" data-name="Path 3506" d="M165.349,544.633a2.931,2.931,0,0,1,3.633.569,2.194,2.194,0,0,0-2.291-1.564s3.16,0,3.239,1.208c0,0-2.686-3.98-4.581-.213" transform="translate(-165.349 -543.013)"/>
            </g>
          </g>
        </g>
        <g id="Group_6446" data-name="Group 6446" transform="translate(70.49 169.58)" opacity="0.12">
          <g id="Group_6445" data-name="Group 6445">
            <g id="Group_6444" data-name="Group 6444" clip-path="url(#clip-path-9)">
              <path id="Path_3507" data-name="Path 3507" d="M209.341,485.525s-4.145,1.14-5.927-.251a5.523,5.523,0,0,0,2.237,1.145s-3.845-.446-3.995-1.287c0,0,2.4,3.221,7.684.393" transform="translate(-201.657 -485.132)"/>
            </g>
          </g>
        </g>
        <g id="Group_6449" data-name="Group 6449" transform="translate(58.825 198.845)" opacity="0.12">
          <g id="Group_6448" data-name="Group 6448">
            <g id="Group_6447" data-name="Group 6447" clip-path="url(#clip-path-10)">
              <path id="Path_3508" data-name="Path 3508" d="M168.519,568.854c.028.187.051.362.07.525l-.3-.131s.093-.144.233-.394" transform="translate(-168.286 -568.854)"/>
            </g>
          </g>
        </g>
        <g id="Group_6452" data-name="Group 6452" transform="translate(52.625 169.674)" opacity="0.12">
          <g id="Group_6451" data-name="Group 6451">
            <g id="Group_6450" data-name="Group 6450" clip-path="url(#clip-path-11)">
              <path id="Path_3509" data-name="Path 3509" d="M150.548,485.525s10.348-1.34,17.851,4.825c0,0-6-3.932-9.084-2.5a2.9,2.9,0,0,1,3.555,1.341s-6.556-3.127-12.322-3.664" transform="translate(-150.548 -485.402)"/>
            </g>
          </g>
        </g>
        <path id="Path_3510" data-name="Path 3510" d="M179.3,305.107l-7.985.736-2.521-12.462-.074-.367v-7.466l.691-.336,2.774-1.345,2.391-1.159.572,2.219,1.758,6.824q-.135.871-.2,1.69c-.643,7.549,2.6,11.665,2.6,11.665" transform="translate(-109.743 -183.887)" fill="#f7a79f"/>
        <g id="Group_6455" data-name="Group 6455" transform="translate(58.976 99.981)" opacity="0.25">
          <g id="Group_6454" data-name="Group 6454">
            <g id="Group_6453" data-name="Group 6453" clip-path="url(#clip-path-12)">
              <path id="Path_3511" data-name="Path 3511" d="M176.9,293.909c-.09.58-.253,3.713-.3,4.259-2.595.421-6.908-2.9-7.852-3.365l-.033.368v-7.119l.691-.682,2.774-1.345,2.962,1.06Z" transform="translate(-168.719 -286.025)"/>
            </g>
          </g>
        </g>
        <path id="Path_3512" data-name="Path 3512" d="M163.342,283.882l6.6.163s.14.351,1.581-.066c1.642-.476,1.832-.838,1.832-.838s3.584-3.01-1.728-11.325a2.928,2.928,0,0,0-.417-.519c-1.195-1.165-6.64-5.894-8.65,2.475,0,0-1.063,6.843.778,10.111" transform="translate(-105.54 -174.912)" fill="#f7a79f"/>
        <path id="Path_3513" data-name="Path 3513" d="M139.26,279.224s-3.161-2.892-1.032-2.892c0,0-2.514-11.9,4.3-12.051l2.022,1.032s-2.728-11.484-9.582,5.446c0,0,2.271,10.041-5.98,12.67-5.118,1.63-5.831,8.51-5.486,13.367.183,2.579,2.566,6.162,2.926,6.566,4.389,4.925,15.179,7.739,16.276-2.11l-1.947-14.825Z" transform="translate(-80.283 -170.096)" fill="#74382f"/>
        <path id="Path_3514" data-name="Path 3514" d="M233.012,230.72s-1.664-14.091-3.527-15.668l-3.916-3.755s-1.73-2.8,0-2.8l2.1,2.447s1.486.845.954-3.887l-.633-2.573a6.907,6.907,0,0,1-.074-2.88c.4-2.138,1.437-4.907,3.835,1.036a20.341,20.341,0,0,1,1.368,9.682,4.433,4.433,0,0,0,.16,1.707l4.527,15v6.309L234.01,236.4Z" transform="translate(-146.22 -129.479)" fill="#f7a79f"/>
        <path id="Path_3515" data-name="Path 3515" d="M143.724,87.19,118.6,74.016,96.116,91.338l1.758-32.692L76.641,37.452l26.206-7.031L112.213,0l14.439,28.347,27.02,2.393L136.389,55.29Z" transform="translate(-49.851 0)" fill="#ffd200"/>
        <path id="Path_3516" data-name="Path 3516" d="M166.426,42.548c-.3,1.29-.642,2.568-.988,3.845s-.719,2.546-1.077,3.819c-.385,1.265-.756,2.535-1.155,3.8l-.6,1.89c-.214.626-.416,1.256-.64,1.88.148-.646.318-1.285.476-1.928l.511-1.917c.345-1.277.719-2.546,1.078-3.819.386-1.265.756-2.535,1.155-3.8s.8-2.521,1.245-3.77" transform="translate(-105.347 -27.675)" fill="#fff"/>
        <path id="Path_3517" data-name="Path 3517" d="M173.34,49.409c-.3,1.29-.642,2.568-.988,3.845s-.719,2.546-1.077,3.819c-.385,1.265-.756,2.535-1.155,3.8l-.6,1.89c-.214.626-.416,1.256-.64,1.88.148-.646.318-1.285.476-1.928l.511-1.917c.345-1.277.719-2.546,1.078-3.819.386-1.265.756-2.535,1.155-3.8s.8-2.521,1.245-3.77" transform="translate(-109.844 -32.138)" fill="#fff"/>
        <path id="Path_3518" data-name="Path 3518" d="M135.4,214.2c-2.1-1.578-2.8,1.4-2.8,1.4-1.184,3.486,2.924,6.9,3.53,8.584a3.445,3.445,0,0,0,.447.837c1.192,1.67-.009,9.357-.009,9.357a52.578,52.578,0,0,0,0,12.828l1.531,5.152h4.725v-6.414L140.7,226.961a3.128,3.128,0,0,1,.058-1.039c.612-2.692.582-2.28.582-2.28s-.35-5.243-5.942-9.438" transform="translate(-86.113 -139.028)" fill="#f7a79f"/>
        <g id="Group_6458" data-name="Group 6458" transform="translate(52.723 149.801)" opacity="0.25">
          <g id="Group_6457" data-name="Group 6457">
            <g id="Group_6456" data-name="Group 6456" clip-path="url(#clip-path-13)">
              <path id="Path_3519" data-name="Path 3519" d="M178.108,443.437c-17.648,6.075-24.345,5.692-27.143,3.28a32.292,32.292,0,0,1,3.8-18.169l10.692,1.264,11.347,2.093a58.056,58.056,0,0,1,1.306,11.531" transform="translate(-150.828 -428.548)"/>
            </g>
          </g>
        </g>
        <path id="Path_3520" data-name="Path 3520" d="M207.508,301.445a3.961,3.961,0,0,1,3.923-2.74,2.2,2.2,0,0,0,1.265-.519l5.725-4.661a9.617,9.617,0,0,1,1.748-1.167c.614-.306,1.582-1.463,1.017-5.794l4.791-1.748.865,4.262a7.324,7.324,0,0,1-1.363,6.13,12.21,12.21,0,0,0-1.1,1.654s-9.673,13.9-13.146,15.029c-.539.176-1.239-1.856-1.239-1.856l-.155.033c-2.343.465-4-3.677-2.85-7.057l.275-.8c.085-.25.163-.506.238-.764" transform="translate(-134.394 -185.257)" fill="#e83181"/>
        <path id="Path_3521" data-name="Path 3521" d="M174.641,377.695h0c-17.273,7.077-25.213,5.178-26.894,3.645-.224-.2-.181.248-.181.248-.029-.217-.238-1-.232-1.225.232-9.656.71-9.939,2.032-15.155a30.453,30.453,0,0,0-.941-17.8,54.94,54.94,0,0,1-2.739-9.545l.488-1.041,3.106-6.635,5.955.473c8.118,4.837,7.054,0,7.054,0l4.7-1.181,1.425-.291.184.911a33.912,33.912,0,0,0,2.557,7.752c.131.279.256.582.374.9a26.52,26.52,0,0,1,1.385,8.572,49.89,49.89,0,0,1-.383,5.377,15.569,15.569,0,0,0-.059,3.807c.781,7.2.921,5.586,1.685,13.4.063.645.142,1.18.222,1.73a30.729,30.729,0,0,1,.267,6.056" transform="translate(-94.76 -214.118)" fill="#e83181"/>
        <g id="Group_6461" data-name="Group 6461" transform="translate(50.492 116.33)" opacity="0.25">
          <g id="Group_6460" data-name="Group 6460">
            <g id="Group_6459" data-name="Group 6459" clip-path="url(#clip-path-14)">
              <path id="Path_3522" data-name="Path 3522" d="M151.235,332.8s-1.217,6.589-5.034,9.446l-1.754-5.87Z" transform="translate(-144.448 -332.796)"/>
            </g>
          </g>
        </g>
        <path id="Path_3523" data-name="Path 3523" d="M148.29,315.949c-1.138,2.978-5.72,13.93-7.578,2.646a3.772,3.772,0,0,1,.253-3.173,8,8,0,0,0,.618-3.5,24.064,24.064,0,0,1,.26-4.793l6.255-1.262a69.422,69.422,0,0,1,.539,8.313,5.559,5.559,0,0,1-.347,1.764" transform="translate(-91.385 -198.953)" fill="#e83181"/>
        <g id="Group_6464" data-name="Group 6464" transform="translate(75.479 124.585)" opacity="0.25">
          <g id="Group_6463" data-name="Group 6463">
            <g id="Group_6462" data-name="Group 6462" clip-path="url(#clip-path-15)">
              <path id="Path_3524" data-name="Path 3524" d="M217.764,358.252a2.528,2.528,0,0,1-1.833-1.842s1.47,2,1.833,1.842" transform="translate(-215.931 -356.41)"/>
            </g>
          </g>
        </g>
        <g id="Group_6467" data-name="Group 6467" transform="translate(76.81 113.33)" opacity="0.25">
          <g id="Group_6466" data-name="Group 6466">
            <g id="Group_6465" data-name="Group 6465" clip-path="url(#clip-path-16)">
              <path id="Path_3525" data-name="Path 3525" d="M219.738,324.216a2.565,2.565,0,0,1,1.73,2.419s.4-2.524-1.73-2.419" transform="translate(-219.738 -324.213)"/>
            </g>
          </g>
        </g>
        <g id="Group_6470" data-name="Group 6470" transform="translate(86.807 105.209)" opacity="0.25">
          <g id="Group_6469" data-name="Group 6469">
            <g id="Group_6468" data-name="Group 6468" clip-path="url(#clip-path-17)">
              <path id="Path_3526" data-name="Path 3526" d="M248.369,300.981a1.708,1.708,0,0,0,1.648,2.078,2.889,2.889,0,0,1-1.648-2.078" transform="translate(-248.335 -300.981)"/>
            </g>
          </g>
        </g>
        <g id="Group_6473" data-name="Group 6473" transform="translate(90.252 108.219)" opacity="0.25">
          <g id="Group_6472" data-name="Group 6472">
            <g id="Group_6471" data-name="Group 6471" clip-path="url(#clip-path-18)">
              <path id="Path_3527" data-name="Path 3527" d="M260.034,309.591s-1.111,1.434-1.842.908c0,0,1.689-.555,1.842-.908" transform="translate(-258.191 -309.591)"/>
            </g>
          </g>
        </g>
        <path id="Path_3528" data-name="Path 3528" d="M944.365,680.582a39.669,39.669,0,0,0,1.125,4.565c1.094,1.935,7.316-3.035,6.162-3.358-.619-.172-1.185-1.92-1.578-3.5-.34-1.372-.549-2.622-.549-2.622s-5.4-2.383-5.531.725a19.908,19.908,0,0,0,.372,4.193" transform="translate(-614.01 -438.915)" fill="#feaaa0"/>
        <g id="Group_6476" data-name="Group 6476" transform="translate(329.973 235.876)" opacity="0.15">
          <g id="Group_6475" data-name="Group 6475">
            <g id="Group_6474" data-name="Group 6474" clip-path="url(#clip-path-19)">
              <path id="Path_3529" data-name="Path 3529" d="M944.365,680.582a7.34,7.34,0,0,0,5.708-2.3c-.34-1.372-.549-2.622-.549-2.622s-5.4-2.383-5.531.725a19.908,19.908,0,0,0,.372,4.193" transform="translate(-943.983 -674.791)"/>
            </g>
          </g>
        </g>
        <path id="Path_3530" data-name="Path 3530" d="M832.641,686.659c.851,1.935,7.172,2.659,7.172,2.659l.79-3.224.156-2.537.166-2.7.347-5.65-6.2.726s-.334.893-.761,2.175c-.335,1-.729,2.248-1.062,3.484-.574,2.125-.974,4.229-.608,5.062" transform="translate(-541.496 -439.189)" fill="#feaaa0"/>
        <g id="Group_6479" data-name="Group 6479" transform="translate(291.753 238.924)" opacity="0.15">
          <g id="Group_6478" data-name="Group 6478">
            <g id="Group_6477" data-name="Group 6477" clip-path="url(#clip-path-20)">
              <path id="Path_3531" data-name="Path 3531" d="M834.641,686.994a7.077,7.077,0,0,0,7.51,1.961l.166-2.7-6.614-2.75c-.336,1-.728,2.248-1.062,3.484" transform="translate(-834.641 -683.51)"/>
            </g>
          </g>
        </g>
        <path id="Path_3532" data-name="Path 3532" d="M903.988,526.6c-.914,1.609-4.163,2.628-5.986,3.084-.755.191-1.265.284-1.265.284l-6.486-36.273a17.646,17.646,0,0,0-1.517-4.719l-5.585-11.222-5.783-11.616c-2.989-4.306-4-7.508-4.294-9.549-.05-.351-.079-.668-.095-.95a5.4,5.4,0,0,1,.117-1.7l-.893-9.47,7.707-.5,7.591-.5.24.931.87,3.392,2.162,8.415,6.449,25.108a9.246,9.246,0,0,0,.688,1.855c1.271,2.518,1.558,7.178,1.614,9.926a40.9,40.9,0,0,0,.4,4.984Z" transform="translate(-567.318 -288.448)" fill="#273566"/>
        <g id="Group_6482" data-name="Group 6482" transform="translate(305.752 165.78)" opacity="0.15">
          <g id="Group_6481" data-name="Group 6481">
            <g id="Group_6480" data-name="Group 6480" clip-path="url(#clip-path-21)">
              <path id="Path_3533" data-name="Path 3533" d="M899.621,549.715c-.755.191-1.265.284-1.265.284l-6.486-36.273a17.643,17.643,0,0,0-1.517-4.719l-5.585-11.222-5.783-11.616c-2.989-4.306-4-7.507-4.294-9.548l14.628-2.358-2.413,21.962s6.723,13.129,7.24,23.155Z" transform="translate(-874.691 -474.262)"/>
            </g>
          </g>
        </g>
        <path id="Path_3534" data-name="Path 3534" d="M951.676,690.546s5.254,3.108,6.686,2.744c0,0,6.923,0,0,5.008,0,0-4.058,3.369-7.639,2.094l-.261.556a1.183,1.183,0,0,1-.778.722l-2.869.558c-.469.091-.889-.479-.917-1.246l-.345-9.4s2.941,3.787,6.124-1.039" transform="translate(-615.03 -449.163)" fill="#131a3f"/>
        <path id="Path_3535" data-name="Path 3535" d="M863.415,444.463q-.173,1.683-.367,3.323-.533,4.541-1.19,8.74c-1.281,8.278-2.836,15.476-4.272,21.226-2.361,9.437-4.406,14.972-4.406,14.972-.474,3.1-3.127,6.464-3.127,6.464-2.37,6.011-7.974,32.94-7.974,32.94a9.3,9.3,0,0,1-8.484-1.587,7.288,7.288,0,0,1-.693-.575l8.379-31.446a32.231,32.231,0,0,1,1.31-3.906c3.624-8.832,4.289-19.935,4.368-25.667a17.273,17.273,0,0,0-.743-5.371,34.55,34.55,0,0,1-1.027-8.25v-.009c-.048-1.37-.061-2.755-.052-4.07.028-4.259.272-7.784.272-7.784l1.089.059,7.847.437,7.831.434Z" transform="translate(-541.758 -288.448)" fill="#131a3f"/>
        <path id="Path_3536" data-name="Path 3536" d="M832.9,544.45a7.467,7.467,0,0,0,.694.576c2.793-12.142,9.716-35.611,9.716-35.611.723-3.83,2.971-9.335,3.29-15.859.05-1.025.149-2.041.282-3.046a42.838,42.838,0,0,0,.128-11.1,45.9,45.9,0,0,1-1.438-13.6l-.437-.079c-.028,4.34.169,9.439,1.079,12.331a17.251,17.251,0,0,1,.743,5.371c-.079,5.732-.745,16.833-4.369,25.666a31.983,31.983,0,0,0-1.31,3.906Z" transform="translate(-541.758 -302.933)" fill="#273566"/>
        <path id="Path_3537" data-name="Path 3537" d="M837.845,701.563l3.365,5.688a1.152,1.152,0,0,0,.574.616c1.144.457,4.652,2.076,3.9,4.489a1.6,1.6,0,0,1-.721.976c-1.027.53-4.274,1.75-8.406-1.229l-2.845-2.694-.062.935c-.027.4-.257.685-.5.616-1.181-.334-4.316-1.35-5.05-2.887,0,0,.226-6.05,1.331-6.769a.41.41,0,0,1,.479,0s5.227,4.546,7.935.26" transform="translate(-538.634 -456.11)" fill="#131a3f"/>
        <path id="Path_3538" data-name="Path 3538" d="M795.207,317.271s.79,26.45,5.927,16.735h4.28l-.856-4.9s-5.729,1.154-5.993-14.812a12.421,12.421,0,0,0-3.588-8.207c-.9-.834-2.091-.552-2.784.638-1.358,2.335-1.169,3.578,3.013,10.551" transform="translate(-514.79 -198.779)" fill="#feaaa0"/>
        <path id="Path_3539" data-name="Path 3539" d="M934.528,243.466s7.106-16.255,6.974-19.14l-1.734-7.6a4.449,4.449,0,0,1-.108-1.147c.032-.879.2-2.249.986-1.644l1.279,5.029c.138.543.67.515.782-.041l1.035-5.18s2.1-7.531,3.924,2.637a4.081,4.081,0,0,1,.047,1.087c-.171,1.87-.836,7.973-2.39,9.838l-3.986,16.542a3.882,3.882,0,0,1-.586,1.338,11.65,11.65,0,0,1-6.228,4.337c-4.721,1.379.007-6.06.007-6.06" transform="translate(-606.492 -137.285)" fill="#feaaa0"/>
        <path id="Path_3540" data-name="Path 3540" d="M873.427,316.3c0-2.186.692-2.575.692-4.761,0-3.552-.692-8.9-.692-12.455h6.717l2.908,9.4.669,2.165,1.363,4.4-11.656,1.25" transform="translate(-568.117 -194.539)" fill="#feaaa0"/>
        <g id="Group_6485" data-name="Group 6485" transform="translate(309.949 113.155)" opacity="0.15">
          <g id="Group_6484" data-name="Group 6484">
            <g id="Group_6483" data-name="Group 6483" clip-path="url(#clip-path-22)">
              <path id="Path_3541" data-name="Path 3541" d="M892.353,326.666c-2.056,1.648-5.655-2.955-5.655-2.955l4.986.79Z" transform="translate(-886.698 -323.711)" fill="#020202"/>
            </g>
          </g>
        </g>
      </g>
    </g>
    <g id="Group_6489" data-name="Group 6489" transform="translate(283.809 104.547)">
      <g id="Group_6488" data-name="Group 6488" clip-path="url(#clip-path-23)">
        <rect id="Rectangle_2164" data-name="Rectangle 2164" width="48.535" height="61.277" transform="translate(0 0)" fill="url(#linear-gradient-2)"/>
      </g>
    </g>
    <g id="Group_6506" data-name="Group 6506">
      <g id="Group_6505" data-name="Group 6505" clip-path="url(#clip-path)">
        <path id="Path_3543" data-name="Path 3543" d="M863.065,283.2s8.547,14.8,14.087,12.5a2.443,2.443,0,0,0,1.119-2.451c-.26-3.645-1.458-12.39-6.974-15.627Z" transform="translate(-561.377 -180.579)" fill="#feaaa0"/>
        <path id="Path_3544" data-name="Path 3544" d="M866.359,286.228l1.449-2.886s-3.589-7.742,1.679-3.511c0,0,.962-4.766,3.084-7.088a6.4,6.4,0,0,0,.339-7.442c-.991-1.349-2.05-1.418-2.764,2.315,0,0-5.663-3.27-8.034,4.617s4.247,13.994,4.247,13.994" transform="translate(-560.423 -172.015)"/>
        <g id="Group_6492" data-name="Group 6492" transform="translate(300.005 129.602)" opacity="0.15">
          <g id="Group_6491" data-name="Group 6491">
            <g id="Group_6490" data-name="Group 6490" clip-path="url(#clip-path-25)">
              <path id="Path_3545" data-name="Path 3545" d="M858.25,374.044a14.332,14.332,0,0,0,.75-1.59,6.473,6.473,0,0,0,.26-.82c.076-.28.109-.567.162-.871a2.321,2.321,0,0,1,.107.912,3.124,3.124,0,0,1-.2.9,3.669,3.669,0,0,1-.438.81,2.778,2.778,0,0,1-.639.655" transform="translate(-858.25 -370.763)" fill="#020202"/>
            </g>
          </g>
        </g>
        <g id="Group_6495" data-name="Group 6495" transform="translate(298.875 126.235)" opacity="0.15">
          <g id="Group_6494" data-name="Group 6494">
            <g id="Group_6493" data-name="Group 6493" clip-path="url(#clip-path-26)">
              <path id="Path_3546" data-name="Path 3546" d="M855.017,366.514a8.486,8.486,0,0,0,.477-1.306c.128-.443.244-.89.341-1.342s.191-.9.289-1.359.181-.914.29-1.374c.017.236.011.471.018.708s-.02.471-.038.706a10.948,10.948,0,0,1-.219,1.4,8.154,8.154,0,0,1-.426,1.355,4.052,4.052,0,0,1-.733,1.215" transform="translate(-855.017 -361.132)" fill="#020202"/>
            </g>
          </g>
        </g>
        <g id="Group_6498" data-name="Group 6498" transform="translate(320.449 112.631)" opacity="0.15">
          <g id="Group_6497" data-name="Group 6497">
            <g id="Group_6496" data-name="Group 6496" clip-path="url(#clip-path-27)">
              <path id="Path_3547" data-name="Path 3547" d="M917.666,323.362c-.136-.177-.253-.358-.379-.527a1.991,1.991,0,0,0-.192-.231.4.4,0,0,0-.089-.071c-.01-.006-.02-.005-.005,0s.038.008.075-.039l-.008-.2a3.216,3.216,0,0,1,.327.472,2.936,2.936,0,0,1,.236.521,1.706,1.706,0,0,1,.034,1.13,3.209,3.209,0,0,0-.318-1.014,6.95,6.95,0,0,0-.534-.9l-.078-.109.07-.087a.238.238,0,0,1,.22-.094.3.3,0,0,1,.144.056.622.622,0,0,1,.148.148,1.72,1.72,0,0,1,.166.306,2.833,2.833,0,0,1,.182.639" transform="translate(-916.736 -322.212)" fill="#020202"/>
            </g>
          </g>
        </g>
        <g id="Group_6501" data-name="Group 6501" transform="translate(298.574 131.285)" opacity="0.15">
          <g id="Group_6500" data-name="Group 6500">
            <g id="Group_6499" data-name="Group 6499" clip-path="url(#clip-path-28)">
              <path id="Path_3548" data-name="Path 3548" d="M857.04,409h-.593c7.486-26.16-2.272-33.326-2.272-33.326l-.019.017.019-.114c8.134,5.1,4.908,24.252,3.93,29.15A39.031,39.031,0,0,1,857.04,409" transform="translate(-854.156 -375.578)" fill="#020202"/>
            </g>
          </g>
        </g>
        <g id="Group_6504" data-name="Group 6504" transform="translate(318.843 120.368)" opacity="0.15">
          <g id="Group_6503" data-name="Group 6503">
            <g id="Group_6502" data-name="Group 6502" clip-path="url(#clip-path-29)">
              <path id="Path_3549" data-name="Path 3549" d="M914.2,346.918a1.986,1.986,0,0,1-.788-.365,3.145,3.145,0,0,1-1.268-2.205c.164.241.3.482.452.712s.3.454.466.67a7.364,7.364,0,0,0,1.138,1.188" transform="translate(-912.142 -344.348)" fill="#020202"/>
            </g>
          </g>
        </g>
        <path id="Path_3550" data-name="Path 3550" d="M806.646,308.173a34.626,34.626,0,0,1-.552-4.028s.329-1.154.527.192l.4,1.154a12.414,12.414,0,0,1,.856,7.5c-.79,4.424-2.173-3.27-2.173-3.27Z" transform="translate(-524.063 -197.53)" fill="#feaaa0"/>
        <path id="Path_3551" data-name="Path 3551" d="M912.088,108.385,888.4,92.778l-24.1,15,5-32.355-19.02-23.2,26.776-4.39L889.4,18.494l11.548,29.642L927.6,53.2l-19.639,22.71Z" transform="translate(-553.063 -12.029)" fill="#ffd200"/>
        <path id="Path_3552" data-name="Path 3552" d="M943.229,60.466c-.43,1.253-.9,2.492-1.365,3.728s-.969,2.462-1.451,3.693c-.509,1.221-1,2.447-1.526,3.663l-.79,1.82c-.275.6-.539,1.209-.824,1.807.212-.628.444-1.247.665-1.871l.7-1.857c.47-1.236.968-2.462,1.452-3.693.51-1.22,1-2.447,1.527-3.662s1.05-2.428,1.614-3.627" transform="translate(-609.644 -39.33)" fill="#fff"/>
        <path id="Path_3553" data-name="Path 3553" d="M949.426,67.981c-.43,1.253-.895,2.492-1.365,3.728s-.969,2.462-1.451,3.693c-.509,1.221-1,2.447-1.526,3.663l-.79,1.82c-.275.6-.539,1.209-.824,1.806.211-.628.444-1.247.665-1.871l.7-1.857c.471-1.236.968-2.462,1.452-3.693.51-1.22,1-2.447,1.527-3.662s1.05-2.428,1.613-3.627" transform="translate(-613.675 -44.218)" fill="#fff"/>
        <path id="Path_3554" data-name="Path 3554" d="M951.929,223.237l-1.65-5.618s2.453-1.892,4.344,5.953-1.28,2.721-1.28,2.721Z" transform="translate(-618.105 -141.419)" fill="#feaaa0"/>
        <path id="Path_3555" data-name="Path 3555" d="M1316.884,604.5a80.056,80.056,0,0,1,7.507,16.543s1.961,2.44,2.969,2.2l1.457,10.712-5.154,2.023s-2.465-11.9-5.826-17.139L1311,607.534Z" transform="translate(-852.735 -393.194)" fill="#f7a79f"/>
        <path id="Path_3556" data-name="Path 3556" d="M1346.67,662.01s-3.81.119-3.362,3.213c0,0,1.9,3.69.784,6.784,0,0-1.417,4.781,2.219,5.1a4.343,4.343,0,0,0,3.431-1.3,9.689,9.689,0,0,0,2.978-7.491s-1.345-8.569-1.345-10.474c0,0,.224-4.4-2.577-4.88,0,0-3.138-.952-3.362-1.309,0,0,4.258,6.427,1.233,10.354" transform="translate(-873.725 -423.867)" fill="#131a3f"/>
        <path id="Path_3557" data-name="Path 3557" d="M1239.954,611.393a127.015,127.015,0,0,1,.56,16.305s.56,7.022,2.129,10.712l-7.507,4.284-2.689-2.619s4.034-1.428,2.913-8.569l-4.818-20.709Z" transform="translate(-800.4 -397.291)" fill="#f7a79f"/>
        <path id="Path_3558" data-name="Path 3558" d="M1221.127,683.211s3.729,4.126,6.346-3.352c0,0,4.141,3.34,2.313,7.467a2.762,2.762,0,0,1-1.18,1.3,16.041,16.041,0,0,1-4.34,1.687,3.343,3.343,0,0,0-.461.125,24.856,24.856,0,0,0-5.9,2.927,3.1,3.1,0,0,1-.636.379c-1.5.662-6.953,2.832-8.231-.078a2.718,2.718,0,0,1-.12-1.745c.3-1.216,1.366-3.505,5.114-4.862a5.076,5.076,0,0,0,2.144-1.482c1.417-1.665,4.133-4.442,4.949-2.362" transform="translate(-786.279 -442.211)" fill="#131a3f"/>
      </g>
    </g>
    <g id="Group_6508" data-name="Group 6508" transform="translate(422.41 145.786)">
      <g id="Group_6507" data-name="Group 6507" clip-path="url(#clip-path-30)">
        <rect id="Rectangle_2171" data-name="Rectangle 2171" width="44.708" height="89.144" fill="url(#linear-gradient-3)"/>
      </g>
    </g>
    <g id="Group_6528" data-name="Group 6528">
      <g id="Group_6527" data-name="Group 6527" clip-path="url(#clip-path)">
        <path id="Path_3560" data-name="Path 3560" d="M1145.042,396.778l-.867.658a2.658,2.658,0,0,1-2.011.521,74.658,74.658,0,0,1-10.795-2.484,2.656,2.656,0,0,1-.551-.247c-1.675-.987-11.264-6.265-12.93,1.252-.024.109-.053.216-.087.322-.148.467-.364,2.155,4.923.876a2.652,2.652,0,0,1,1.966.293,10.655,10.655,0,0,0,4.565,1.608,2.686,2.686,0,0,1,1.219.315c2.492,1.333,11.665,6.027,17.11,5.9a2.788,2.788,0,0,0,2.476-1.724l1.7-3.946a2.928,2.928,0,0,0-2.834-4.173l-2.574.3a2.693,2.693,0,0,0-1.315.533" transform="translate(-727.034 -255.304)" fill="#f7a79f"/>
        <path id="Path_3561" data-name="Path 3561" d="M1200.875,365.46l-3.249,9.283c-.129.027-.259.05-.389.066-4.383.581-9.2-4.485-9.2-4.485,6.879-16.439,10.713-20.337,10.713-20.337l.9,6.524Z" transform="translate(-772.751 -227.648)" fill="#abe5f1"/>
        <g id="Group_6511" data-name="Group 6511" transform="translate(423.541 128.864)" opacity="0.15">
          <g id="Group_6510" data-name="Group 6510">
            <g id="Group_6509" data-name="Group 6509" clip-path="url(#clip-path-32)">
              <path id="Path_3562" data-name="Path 3562" d="M1216.244,377.6l-3.249,9.284c-.129.027-.259.05-.389.066-2.02-7.079-.171-17.919-.171-17.919l2.578-.379Z" transform="translate(-1211.661 -368.653)"/>
            </g>
          </g>
        </g>
        <path id="Path_3563" data-name="Path 3563" d="M1246.634,321.709l-5.379,7.5-7.507-5.475,1.232-5.821,1.792-8.461,6.835-2.023s.826,4.68,1.992,9.912c.322,1.444.67,2.929,1.033,4.37" transform="translate(-802.486 -199.965)" fill="#f7a79f"/>
        <g id="Group_6514" data-name="Group 6514" transform="translate(432.493 107.462)" opacity="0.15">
          <g id="Group_6513" data-name="Group 6513">
            <g id="Group_6512" data-name="Group 6512" clip-path="url(#clip-path-33)">
              <path id="Path_3564" data-name="Path 3564" d="M1247.894,317.34a9.671,9.671,0,0,1-10.62.573l1.793-8.461,6.835-2.023s.826,4.679,1.992,9.912" transform="translate(-1237.273 -307.428)"/>
            </g>
          </g>
        </g>
        <path id="Path_3565" data-name="Path 3565" d="M1240.958,344.867l-.077,1.867-.931,22.531a9.316,9.316,0,0,1-1.98,1.965c-2.836,2.169-8.927,4.892-19.586,1.156a2.594,2.594,0,0,1-1.3-1.024c-1.359-2.048-4.568-8.332-2.686-19.949l1.121-6.189,6.947-.952s3.7,7.022,10.533-1.428c0,0,6.611-1.071,7.956,2.023" transform="translate(-789.527 -222.885)" fill="#e83181"/>
        <path id="Path_3566" data-name="Path 3566" d="M1135.087,405.385,1111.4,389.778l-24.1,15,5-32.355-19.02-23.2,26.776-4.39,12.344-29.339,11.548,29.642L1150.6,350.2l-19.639,22.71Z" transform="translate(-698.112 -205.212)" fill="#ffd200"/>
        <path id="Path_3567" data-name="Path 3567" d="M1166.229,357.466c-.43,1.253-.895,2.492-1.365,3.728s-.969,2.461-1.452,3.693c-.509,1.221-1,2.447-1.526,3.663l-.79,1.82c-.275.6-.539,1.209-.824,1.807.211-.628.444-1.247.665-1.871l.7-1.857c.47-1.236.968-2.462,1.452-3.693.51-1.22,1-2.447,1.527-3.662s1.05-2.428,1.613-3.627" transform="translate(-754.694 -232.512)" fill="#fff"/>
        <path id="Path_3568" data-name="Path 3568" d="M1172.426,364.981c-.43,1.253-.895,2.492-1.365,3.728s-.969,2.462-1.451,3.693c-.509,1.221-1,2.447-1.526,3.663l-.79,1.82c-.275.6-.539,1.209-.824,1.807.212-.628.444-1.247.665-1.871l.7-1.857c.47-1.236.968-2.462,1.452-3.693.51-1.22,1-2.447,1.527-3.662s1.05-2.428,1.613-3.627" transform="translate(-758.724 -237.4)" fill="#fff"/>
        <g id="Group_6517" data-name="Group 6517" transform="translate(447.507 121.976)" opacity="0.15">
          <g id="Group_6516" data-name="Group 6516">
            <g id="Group_6515" data-name="Group 6515" clip-path="url(#clip-path-34)">
              <path id="Path_3569" data-name="Path 3569" d="M1284.066,350.821l-.931,22.531a9.316,9.316,0,0,1-1.98,1.965c-1.015-5.146-.933-14.819-.933-14.819-.112-9.521,2.476-11.552,2.476-11.552Z" transform="translate(-1280.219 -348.946)"/>
            </g>
          </g>
        </g>
        <path id="Path_3570" data-name="Path 3570" d="M1251.111,406.167l.549,6a4.324,4.324,0,0,1-1.851,4,103.056,103.056,0,0,1-15.954,8.808s-3.922,6.308-7.956,6.189c0,0-4.706-.952-2.353-5.474,0,0,2.465-5.118,9.748-6.427,0,0,12.774-6.189,13.558-10.354Z" transform="translate(-795.422 -264.19)" fill="#f7a79f"/>
        <path id="Path_3571" data-name="Path 3571" d="M1292.86,370.422s-6.163,4.523-9.973,2.142c0,0-2.766-23.857,1.922-26.032,0,0,3.12-1.937,5.585,13.535Z" transform="translate(-833.922 -225.35)" fill="#e83181"/>
        <path id="Path_3572" data-name="Path 3572" d="M1271.045,310.39s-3.135-5.658-5.152-4.944c0,0-8.511,4.148-8.779-7.566a19.788,19.788,0,0,1,.19-3.136c.295-2.154.7-7.352-2.043-8.649.76-.617,1.872-1.5,3.5-2.756,1.5,1.784,2.829,4.831,3.438,9.968,0,0,.607,8.27,4.319,9.914a6.76,6.76,0,0,1,1.705,1.054c1.413,1.22,3.6,3.6,2.826,6.116" transform="translate(-816.479 -184.297)" fill="#74382f"/>
        <path id="Path_3573" data-name="Path 3573" d="M1242.027,287.577s7.283,6.189,0,15.353c0,0-4.146,5.118-7.844-4.4,0,0-5.042-15.948,7.844-10.95" transform="translate(-802.137 -186.422)" fill="#f7a79f"/>
        <path id="Path_3574" data-name="Path 3574" d="M1228.49,278.854c-1.624,1.259,2.239,8.578,1.478,9.194-.331-.156-5.68-6.693-6.107-6.724,0,0-3.1-.227-5.017,4.595a9.11,9.11,0,0,0-.068,6.492c.946,2.557,2.128,6.714,1.451,10.189a7.866,7.866,0,0,0-.115,2.134,10.254,10.254,0,0,1-2.988,7.691,2.772,2.772,0,0,1-2,.926c-1.864.037-5.286-.567-6.256-5.273a6.669,6.669,0,0,1,1.035-5.133,8.537,8.537,0,0,0,1.189-2.423,6.347,6.347,0,0,1,.836-1.757,7.694,7.694,0,0,0,1.23-5.576,6.7,6.7,0,0,1-.018-1.985c.529-3.777,2.656-15.218,8.929-14.521a5.936,5.936,0,0,1,6.422,2.172" transform="translate(-786.212 -179.812)" fill="#74382f"/>
        <path id="Path_3575" data-name="Path 3575" d="M500.722,344.4l-9.8.983L486.491,327.7c1.259-1.42.731-4.77.039-7.4a36.261,36.261,0,0,0-1.148-3.586l10.534,3.573,1.038,5.208Z" transform="translate(-315.715 -206.005)" fill="#feaaa0"/>
        <g id="Group_6520" data-name="Group 6520" transform="translate(169.667 110.709)" opacity="0.15">
          <g id="Group_6519" data-name="Group 6519">
            <g id="Group_6518" data-name="Group 6518" clip-path="url(#clip-path-35)">
              <path id="Path_3576" data-name="Path 3576" d="M496.954,325.5c-3.5,1.617-8.735-3.421-10.425-5.195a36.235,36.235,0,0,0-1.148-3.586l10.534,3.572Z" transform="translate(-485.382 -316.715)"/>
            </g>
          </g>
        </g>
        <path id="Path_3577" data-name="Path 3577" d="M482.519,296.046s-4.435-.447,1.756,5.627c0,0,5.452,5.984,10.535,3.573,0,0,6.1-2.412-1.2-16.7,0,0-12.753-.983-11.089,7.5" transform="translate(-312.852 -187.659)" fill="#feaaa0"/>
        <path id="Path_3578" data-name="Path 3578" d="M492.455,282.852s-5.307-3.2-7.017,3.63c0,0-2.125,2.68-1.386,4.555,0,0-5.683-5.136-3.234,1.971,0,0-3.638-3.077-2.053-8.93a8.164,8.164,0,0,1,6.137-5.841c2.562-.558,5.61.031,7.554,4.615" transform="translate(-311.15 -180.865)" fill="#020202"/>
        <path id="Path_3579" data-name="Path 3579" d="M471.767,699.517s.588,2.6.082,8.563a2.8,2.8,0,0,0,.489,1.822c1.253,1.825,4.309,5.268,6.6-.427a2.51,2.51,0,0,0,.092-1.612c-.469-1.694-1.5-5.815-1.212-8.39Z" transform="translate(-306.859 -454.968)" fill="#131a3f"/>
        <path id="Path_3580" data-name="Path 3580" d="M519.342,685.166s-2.264,4.6-.416,5.314c0,0,1.589,1.39,5.041,1.257a2.95,2.95,0,0,1,2.022.7,14.415,14.415,0,0,0,3.624,2.332,3.291,3.291,0,0,0,.935.226c1.684.156,7.595.554,7.13-1.632a1.426,1.426,0,0,0-.36-.668,14.489,14.489,0,0,0-5.252-3.668,1.578,1.578,0,0,1-.784-.593c-.93-1.345-3.755-5.337-5.057-6.077Z" transform="translate(-337.061 -443.833)" fill="#131a3f"/>
        <path id="Path_3581" data-name="Path 3581" d="M513.093,547.217c-.924,5.716,1.031,18.57,1.031,18.57a8.009,8.009,0,0,1-7.962,2.116,5.658,5.658,0,0,1-.785-.277c-2.772-18.489-.139-27.107-.139-27.107,1.017-3.573,0-8.485,0-8.485l-3.479-13.262-2.258-8.606-.173-.657-2.315-8.824,9.057.377,8.131.338c.569.183.86,2.586.987,5.889.237,6.171-.1,15.49-.26,19.374a17.579,17.579,0,0,0,.065,2.534c.41,4-1.9,18.021-1.9,18.021" transform="translate(-323.281 -325.668)" fill="#273566"/>
        <g id="Group_6523" data-name="Group 6523" transform="translate(176.048 183.84)" opacity="0.15">
          <g id="Group_6522" data-name="Group 6522">
            <g id="Group_6521" data-name="Group 6521" clip-path="url(#clip-path-36)">
              <path id="Path_3582" data-name="Path 3582" d="M510.47,584.323a5.673,5.673,0,0,1-.785-.277c-2.772-18.488-.139-27.107-.139-27.107,1.016-3.573,0-8.485,0-8.485l-3.479-13.262-2.257-8.606-.173-.657,5.091,1.7-2.092,7.83,3.234,11.164s2.587,7.949,0,12.593c0,0-2.218,2.341.6,25.107" transform="translate(-503.636 -525.929)"/>
            </g>
          </g>
        </g>
        <path id="Path_3583" data-name="Path 3583" d="M487.068,498.855l-.092.377-2.451,10.07-1.86,7.641-4.1,16.835a40.6,40.6,0,0,0-.647,8.4l-2.033,27.509c-2.957-1.518-7.208,0-7.208,0l-1.016-26.527.554-25.544a42.068,42.068,0,0,1,.481-15.91,37.346,37.346,0,0,1,1-3.829Z" transform="translate(-304.186 -323.839)" fill="#273566"/>
        <g id="Group_6526" data-name="Group 6526" transform="translate(165.214 174.072)" opacity="0.15">
          <g id="Group_6525" data-name="Group 6525">
            <g id="Group_6524" data-name="Group 6524" clip-path="url(#clip-path-37)">
              <path id="Path_3584" data-name="Path 3584" d="M499.335,505.531a13.287,13.287,0,0,1-11.57,3.842,20.448,20.448,0,0,1-4.118-.964,45.236,45.236,0,0,1-9.263-4.617c.756-.425-1.744-2.254-1.744-2.254l2.513-2.612-1.2.893a11.207,11.207,0,0,0-.335-1.837l16.691.944-.092.377,8.131.338c.569.183.859,2.586.987,5.889" transform="translate(-472.641 -497.983)"/>
            </g>
          </g>
        </g>
        <path id="Path_3585" data-name="Path 3585" d="M564.061,390.661a7.348,7.348,0,0,1-.427.918c-5.372,9.641-9.275,13.327-9.275,13.327-5.729,6.431-8.686-1.429-8.686-1.429l-7.947-15.184,5.822-2.59a71.117,71.117,0,0,1,7.716,13.353,61.638,61.638,0,0,0,10.328-12.877s4.894-1.748,2.47,4.483" transform="translate(-349.761 -250.879)" fill="#feaaa0"/>
        <path id="Path_3586" data-name="Path 3586" d="M542.217,365.466s-3.567,2.071-4.491,12.342l4.066,7.86,8.039-4.644s-4.509-15.754-7.614-15.558" transform="translate(-349.761 -237.714)" fill="#449092"/>
      </g>
    </g>
    <g id="Group_6530" data-name="Group 6530" transform="translate(158.024 118.881)">
      <g id="Group_6529" data-name="Group 6529" clip-path="url(#clip-path-38)">
        <rect id="Rectangle_2179" data-name="Rectangle 2179" width="35.762" height="66.674" transform="translate(0 0)" fill="url(#linear-gradient-4)"/>
      </g>
    </g>
    <g id="Group_6544" data-name="Group 6544">
      <g id="Group_6543" data-name="Group 6543" clip-path="url(#clip-path)">
        <g id="Group_6533" data-name="Group 6533" transform="translate(179.937 133.306)" opacity="0.15">
          <g id="Group_6532" data-name="Group 6532">
            <g id="Group_6531" data-name="Group 6531" clip-path="url(#clip-path-40)">
              <path id="Path_3588" data-name="Path 3588" d="M514.76,381.359l1.635,50.935.666,0Z" transform="translate(-514.76 -381.359)"/>
            </g>
          </g>
        </g>
        <g id="Group_6536" data-name="Group 6536" transform="translate(190.807 134.824)" opacity="0.15">
          <g id="Group_6535" data-name="Group 6535">
            <g id="Group_6534" data-name="Group 6534" clip-path="url(#clip-path-41)">
              <path id="Path_3589" data-name="Path 3589" d="M545.859,396.467s2.251-8.041,1.9-10.765Z" transform="translate(-545.859 -385.702)"/>
            </g>
          </g>
        </g>
        <g id="Group_6539" data-name="Group 6539" transform="translate(191.078 136.254)" opacity="0.15">
          <g id="Group_6538" data-name="Group 6538">
            <g id="Group_6537" data-name="Group 6537" clip-path="url(#clip-path-42)">
              <path id="Path_3590" data-name="Path 3590" d="M546.633,397.653a26.619,26.619,0,0,0,3.421-6.262,6.639,6.639,0,0,0,.246-1.079c.381-2.887-1.062,7.207-3.668,7.341" transform="translate(-546.633 -389.794)"/>
            </g>
          </g>
        </g>
        <path id="Path_3591" data-name="Path 3591" d="M502.032,396.693l-24.79-13.785-22.9,16.766,2.558-32.639-20.707-21.708,26.371-6.387,10.107-30.183,13.74,28.692L513.36,340.5l-17.879,24.12Z" transform="translate(-283.716 -200.83)" fill="#ffd200"/>
        <path id="Path_3592" data-name="Path 3592" d="M526.833,351.2c-.335,1.282-.705,2.552-1.081,3.82s-.781,2.527-1.17,3.791c-.416,1.256-.818,2.516-1.248,3.767l-.651,1.875c-.229.621-.447,1.245-.686,1.864.164-.642.349-1.277.523-1.916l.558-1.9c.377-1.268.781-2.528,1.171-3.791.417-1.255.818-2.516,1.248-3.767s.865-2.5,1.337-3.738" transform="translate(-339.531 -228.438)" fill="#fff"/>
        <path id="Path_3593" data-name="Path 3593" d="M533.577,358.231c-.335,1.282-.705,2.552-1.081,3.82s-.781,2.527-1.17,3.791c-.416,1.256-.818,2.516-1.248,3.767l-.651,1.875c-.229.621-.447,1.245-.686,1.863.164-.642.349-1.277.523-1.916l.558-1.9c.376-1.268.781-2.528,1.171-3.791.417-1.255.818-2.516,1.248-3.767s.865-2.5,1.337-3.738" transform="translate(-343.917 -233.01)" fill="#fff"/>
        <path id="Path_3594" data-name="Path 3594" d="M439.5,392.336l-2.9,16.837a15.2,15.2,0,0,0,1.36,9.349,214.787,214.787,0,0,0,11.512,20.541,38.708,38.708,0,0,0,1.347,5.8,3.856,3.856,0,0,0,2.234,2.324,2.011,2.011,0,0,0,2.688-.97,3.864,3.864,0,0,0,.16-3.464l-1.278-2.911,1.424,1.281a1.888,1.888,0,0,0,2.148.279l-5.981-5.722-8.624-21.339a3.047,3.047,0,0,1-.106-2.276l5.407-15.4Z" transform="translate(-283.834 -255.193)" fill="#feaaa0"/>
        <g id="Group_6542" data-name="Group 6542" transform="translate(160.873 131.913)" opacity="0.15">
          <g id="Group_6541" data-name="Group 6541">
            <g id="Group_6540" data-name="Group 6540" clip-path="url(#clip-path-43)">
              <path id="Path_3595" data-name="Path 3595" d="M462.385,395.453s5.661-10.451,1.8-18.079l-3.965,9.039Z" transform="translate(-460.224 -377.374)"/>
            </g>
          </g>
        </g>
      </g>
    </g>
    <g id="Group_6546" data-name="Group 6546" transform="translate(153.958 128.054)">
      <g id="Group_6545" data-name="Group 6545" clip-path="url(#clip-path-44)">
        <rect id="Rectangle_2185" data-name="Rectangle 2185" width="12.378" height="20.703" transform="translate(0 0)" fill="url(#linear-gradient-5)"/>
      </g>
    </g>
    <g id="Group_6560" data-name="Group 6560">
      <g id="Group_6559" data-name="Group 6559" clip-path="url(#clip-path)">
        <g id="Group_6549" data-name="Group 6549" transform="translate(182.862 215.793)" opacity="0.15">
          <g id="Group_6548" data-name="Group 6548">
            <g id="Group_6547" data-name="Group 6547" clip-path="url(#clip-path-46)">
              <path id="Path_3597" data-name="Path 3597" d="M523.129,617.338s.9,1.157,4.317.978a3.116,3.116,0,0,1-4.317-.978" transform="translate(-523.129 -617.338)"/>
            </g>
          </g>
        </g>
        <g id="Group_6552" data-name="Group 6552" transform="translate(182.836 214.36)" opacity="0.15">
          <g id="Group_6551" data-name="Group 6551">
            <g id="Group_6550" data-name="Group 6550" clip-path="url(#clip-path-47)">
              <path id="Path_3598" data-name="Path 3598" d="M523.053,613.237s1.848,2.5,5.822.893c0,0-3.881.714-5.822-.893" transform="translate(-523.053 -613.237)"/>
            </g>
          </g>
        </g>
        <g id="Group_6555" data-name="Group 6555" transform="translate(169.621 121.65)" opacity="0.15">
          <g id="Group_6554" data-name="Group 6554">
            <g id="Group_6553" data-name="Group 6553" clip-path="url(#clip-path-48)">
              <path id="Path_3599" data-name="Path 3599" d="M485.25,348.015v4.019s2.957,1.786,4.805-.625l-.3-1.066s-.713,3.12-3.855,1.066Z" transform="translate(-485.25 -348.015)"/>
            </g>
          </g>
        </g>
        <g id="Group_6558" data-name="Group 6558" transform="translate(182.237 124.885)" opacity="0.15">
          <g id="Group_6557" data-name="Group 6557">
            <g id="Group_6556" data-name="Group 6556" clip-path="url(#clip-path-49)">
              <path id="Path_3600" data-name="Path 3600" d="M524.988,357.427v2.679a3.43,3.43,0,0,1-3.648-2.013l.078-.826s.89,2.66,2.646,2.214Z" transform="translate(-521.34 -357.268)"/>
            </g>
          </g>
        </g>
        <path id="Path_3601" data-name="Path 3601" d="M607.673,386.327c-.963,1.1-1.68,2.9,1.025,4.92,1.535,1.144,3.592,1.121,4.286-.1.605-1.064.566-2.651-2.126-4.7-1.071-.813-2.526-.879-3.184-.128" transform="translate(-394.696 -250.943)" fill="#feaaa0"/>
      </g>
    </g>
  </g>
</svg>
